<?xml version="1.0" encoding="utf-8"?>
<!-- Generator: Adobe Illustrator 22.1.0, SVG Export Plug-In . SVG Version: 6.00 Build 0)  -->
<svg version="1.1" id="Layer_1" xmlns="http://www.w3.org/2000/svg" xmlns:xlink="http://www.w3.org/1999/xlink" x="0px" y="0px"
	 viewBox="0 0 146.3 187.5" style="enable-background:new 0 0 146.3 187.5;" xml:space="preserve">
<style type="text/css">
	.st0{fill:#686A6A;}
	.st1{fill:#4A4848;}
	.st2{fill:#717070;}
	.st3{fill:#595655;}
	.st4{fill:#4E4E54;}
	.st5{fill:#9D9D9D;}
	.st6{fill:#EAEAEA;stroke:#939393;stroke-width:0.5;stroke-miterlimit:10;}
	.st7{fill:#131313;}
	.st8{opacity:0.63;fill:#010101;}
	.st9{fill:#878383;}
	.st10{fill:#D3D6DA;}
	.st11{fill:#D24F27;}
	.st12{fill:#010101;}
	.st13{opacity:0.42;fill:#010101;}
	.st14{opacity:0.32;fill:#010101;}
</style>
<g id="broom-img">
	<g id="pan">
		<path class="st0" d="M93.8,165.3c0,0-0.5-5.9,0.5-7.9s2-2.5,3-3.5c1-1,16.3-30.6,16.3-30.6l-0.7-16c0,0,0.5-4.9-4.9-7.4
			s-10.4-2.5-7.4-6.9c3-4.4,8.9-19.2,11.8-20.7l-1.9-0.7l-1.3-0.5c0,0-3.9-2-6.4,2.5c-2.5,4.4-7.9,14.3-10.8,16.8
			c-3,2.5-10.8,2.5-13.8,1.5c-2.6-0.9-7.2,0.2-11.6,5.2c0,0,0,0,0,0c-0.6,0.6-1.1,1.4-1.7,2.1c-0.4,0.5-0.8,1.2-1.4,1.9
			c-0.1,0.2-0.2,0.3-0.3,0.4c-0.8,1.2-1.8,2.6-2.9,4.2c0,0,0,0.1-0.1,0.1c-1,1.4-2,2.9-3.2,4.5c-0.7,1.1-1.5,2.2-2.3,3.3
			c-8.9,12.8-19.9,28.8-19.9,28.8L93.8,165.3z"/>
		<g>
			<path class="st1" d="M54.1,133.5c0,0,7.9-13.3,8.9-15.8c1-2.5,9.4-7.9,12.8-9.4c3.5-1.5,14.3,1,19.2,2s14.3,6.9,14.3,6.9
				s1-3.5,2-6.9c1-3.5-1-4.9-1.5-6.9c-0.5-2-11.3-6.4-11.3-6.4c-2,0-1-1-1-1l12.9-24.4l-1.3-0.5c0,0-3.9-2-6.4,2.5
				c-2.5,4.4-7.9,14.3-10.8,16.8c-3,2.5-10.8,2.5-13.8,1.5c-2.6-0.9-7.2,0.2-11.6,5.2c0,0,0,0,0,0c-0.9,1.2-2,2.6-3.1,4.1
				c-0.1,0.2-0.2,0.3-0.3,0.4c-1,1.4-2,2.9-2.9,4.2c0,0,0,0.1-0.1,0.1c-1.7,2.5-3,4.4-3,4.4l-0.2,0.1l-2.3,1.4l0,2L54.1,133.5z"/>
			<path class="st2" d="M54.1,133.4C54.1,133.3,54.1,133.3,54.1,133.4c0-0.1,0-0.2,0-0.2l0.1-0.2l0.3-0.5l0.5-1l1-1.9l2.1-3.8
				c1.4-2.5,2.8-5.1,4-7.7c0.1-0.3,0.2-0.6,0.5-1c0.1-0.2,0.2-0.4,0.3-0.5c0.1-0.2,0.2-0.3,0.4-0.5c0.5-0.6,1-1.1,1.6-1.6
				c1.1-1,2.3-1.9,3.5-2.8c1.2-0.9,2.4-1.7,3.7-2.5c0.6-0.4,1.3-0.8,1.9-1.1c0.7-0.3,1.3-0.7,2.2-1c1.7-0.4,3.2-0.4,4.7-0.3
				c1.5,0.1,3,0.2,4.4,0.4c2.9,0.4,5.8,0.9,8.6,1.5c0.7,0.1,1.4,0.2,2.2,0.4c0.8,0.2,1.5,0.4,2.2,0.7c1.4,0.5,2.8,1.1,4.1,1.8
				c2.7,1.3,5.2,2.7,7.7,4.3l-2.3,0.9l1.9-6.7c0.3-1,0.4-1.8,0.1-2.6c-0.2-0.8-0.8-1.6-1.3-3c-0.1-0.2-0.1-0.3-0.2-0.5l-0.1-0.3
				c0,0.1,0,0.1,0.1,0.2c0.1,0.1-0.1-0.1-0.2-0.2c-0.3-0.3-0.7-0.6-1.2-0.8c-0.9-0.6-1.9-1.1-2.9-1.6c-2-1-4.1-1.9-6.2-2.8l0.7,0.1
				c-0.2,0-0.4,0-0.7,0c-0.3,0-0.6-0.1-1-0.3c-0.1-0.1-0.3-0.2-0.4-0.3c-0.1-0.1-0.3-0.3-0.4-0.5c-0.1-0.2-0.3-0.5-0.3-0.7
				c0-0.1,0-0.3,0-0.4c0-0.1,0-0.2,0-0.3c0.1-0.4,0.2-0.7,0.3-0.9c0.1-0.2,0.2-0.3,0.4-0.5l-0.3,0.4l6.4-12.2l6.5-12.2l0.9,2.4
				l-1.3-0.5l-0.1,0l-0.1,0c0,0-0.3-0.1-0.5-0.2c-0.2-0.1-0.4-0.1-0.6-0.1c-0.4,0-0.7,0-1.1,0.1c-0.7,0.2-1.3,0.7-1.8,1.4
				c-0.1,0.2-0.2,0.3-0.4,0.6l-0.4,0.8l-0.9,1.5l-1.7,3c-1.2,2-2.4,4-3.7,6c-0.6,1-1.3,2-2,2.9c-0.7,1-1.4,1.9-2.5,2.9
				c-1.2,1-2.5,1.4-3.7,1.7c-1.2,0.3-2.5,0.5-3.7,0.6c-1.2,0.1-2.4,0.1-3.6,0c-1.2-0.1-2.4-0.2-3.7-0.6c-3.6-1.5-8.1,1.7-10.6,4.3
				l-0.1,0.2l-3.3,4.2l-3.2,4.5l0.1-0.1l-3.1,4.3l-0.1,0.2l-0.1,0.1l-2.5,1.4l0.4-0.6l-0.3,5.3l-0.3,5.3
				C54.5,125.9,54.2,129.7,54.1,133.4z M54,133.6l0.4-21.8l0-0.1l0.1,0l2.5-1.5l0,0l3-4.4l0,0l3.1-4.4l3.3-4.4l0,0
				c1.6-1.8,3.3-3.3,5.4-4.4c1-0.5,2.1-0.9,3.3-1.1c1.1-0.2,2.4-0.1,3.5,0.3c2.2,0.6,4.5,0.6,6.8,0.4c1.1-0.1,2.3-0.3,3.4-0.6
				c1.1-0.3,2.2-0.7,3.1-1.4c0.9-0.7,1.6-1.7,2.2-2.6c0.7-0.9,1.3-1.9,2-2.8c1.2-1.9,2.4-3.9,3.6-5.9c1.2-2,2.2-4,3.4-6
				c0.6-1,1.6-1.8,2.8-2.2c1.2-0.3,2.4-0.2,3.5,0.2l0,0l1.3,0.5l0.2,0.1l-0.1,0.2L97.6,96.1l0,0l0,0c-0.1,0.1-0.2,0.2-0.2,0.3
				c0,0.1,0,0.1,0.1,0.2c0.2,0.1,0.6,0.1,0.9,0.1l0,0l0,0c2.1,0.9,4.2,1.8,6.3,2.9c1,0.5,2,1.1,3,1.7c0.5,0.3,1,0.6,1.4,1
				c0.2,0.2,0.4,0.4,0.6,0.7c0.2,0.3,0.2,0.6,0.3,0.8c0.4,1,1.1,2,1.4,3.2c0.3,1.2,0.2,2.4-0.2,3.5l-1.9,6.6l-0.1,0.2l-0.2-0.1
				c-2.5-1.5-5-3-7.6-4.3c-2.6-1.3-5.2-2.5-8.1-2.9c-2.8-0.6-5.7-1.2-8.5-1.6c-1.4-0.2-2.9-0.4-4.3-0.5c-1.4-0.1-2.9-0.1-4.3,0.2
				c-1.3,0.4-2.6,1.2-3.9,1.9c-1.2,0.7-2.5,1.5-3.7,2.3c-1.2,0.8-2.4,1.7-3.5,2.6c-1.1,0.9-2.2,1.9-2.7,3.3
				c-1.3,2.6-2.8,5.1-4.2,7.6l-2.2,3.8l-1.1,1.9l-0.6,0.9l-0.3,0.5l-0.1,0.2C54.3,133.4,54.2,133.5,54,133.6z"/>
		</g>
		<polygon class="st3" points="93.5,156.7 58.5,142.4 69.3,143.8 95,154.2 		"/>
		<polygon class="st4" points="94.5,157.2 53.6,140.4 52.6,153.2 69.8,154.7 70.8,157.2 94,165 		"/>
		<g>
			<path class="st5" d="M111.4,72.9L98.6,96.4l-0.3-1c2.6,1.4,5.3,2.7,8.1,3.6c1.5,0.5,3,1.2,4.2,2.4c1.3,1.2,2,2.9,2.2,4.6
				c0.2,1.7,0,3.3-0.4,4.8c-0.2,0.8-0.4,1.5-0.6,2.2c-0.2,0.7-0.4,1.5-0.7,2.2c-0.9,2.9-1.9,5.7-2.8,8.6c-1.9,5.7-3.9,11.4-6.1,17
				c-2.2,5.6-4.5,11.2-6.9,16.7l-0.4,0.9l-0.9-0.4l-13.7-5.8c-4.5-2-9.1-3.9-13.6-5.9l0.1-0.3c4.7,1.6,9.3,3.3,14,5l13.9,5.1
				l-1.3,0.6c1.9-5.7,3.8-11.4,5.9-17.1c2-5.7,4.2-11.2,6.4-16.9c1.1-2.8,2.1-5.6,3.1-8.4c0.9-2.8,2.1-5.6,1.9-8.3
				c-0.1-1.3-0.6-2.5-1.5-3.4c-0.9-0.9-2.2-1.6-3.5-2.1c-2.9-1.1-5.6-2.4-8.2-4L97,96.3l0.4-0.6l13.8-22.9L111.4,72.9z"/>
		</g>
		<g>
			<path class="st5" d="M95.2,110.7c-2.9-0.8-5.8-1.4-8.8-1.9c-1.5-0.2-2.9-0.5-4.4-0.6c-1.5-0.1-3-0.2-4.2,0.1
				c-1.2,0.3-2.5,1.1-3.7,1.9c-1.2,0.8-2.4,1.7-3.6,2.5c-2.4,1.7-4.8,3.4-7.2,5.3l-0.2-0.1c0.8-1.3,1.7-2.5,2.8-3.7
				c1-1.1,2.2-2.2,3.3-3.1c1.2-1,2.4-1.8,3.8-2.6c0.7-0.4,1.4-0.7,2.1-1c0.4-0.2,0.7-0.3,1.1-0.4c0.4-0.1,0.8-0.2,1.2-0.3
				c1.7-0.3,3.2,0,4.7,0.2c1.5,0.2,3,0.6,4.5,0.9c2.9,0.8,5.8,1.7,8.6,2.7L95.2,110.7z"/>
		</g>
		<g>
			<path class="st2" d="M109.3,70.9c-0.6,2.3-1.4,4.5-2.3,6.6c-0.9,2.1-1.9,4.2-3,6.2c-1.1,2-2.3,4-3.6,5.9C99,91.5,97.6,93.3,96,95
				c0.6-2.3,1.4-4.5,2.3-6.6c0.9-2.1,1.9-4.2,3-6.2c1.1-2,2.3-4,3.6-5.9C106.2,74.4,107.6,72.6,109.3,70.9z"/>
		</g>
		<g>
			<path class="st2" d="M97,97.5c-0.3,0.5-1,0.8-1.6,0.9c-0.6,0.1-1.3-0.1-1.8-0.2c-0.6-0.2-1.2-0.3-1.7-0.7
				c-0.2-0.2-0.5-0.4-0.7-0.7c-0.1-0.2-0.3-0.2-0.2-0.6c0.1-0.2,0.3-0.3,0.3-0.3c0.1,0,0.2,0,0.3,0.1v0.1c-0.1,0-0.1,0.1-0.2,0.1
				c-0.1,0,0,0.1,0,0c0-0.1,0.1,0,0.2,0.1l0.7,0.3c0.5,0.2,1,0.6,1.5,0.8c0.5,0.2,1,0.4,1.6,0.5C95.9,98,96.5,97.9,97,97.5L97,97.5z
				"/>
		</g>
	</g>
	<g id="straws_2_">
		<g>
			
				<rect x="44.6" y="147.5" transform="matrix(0.968 -0.251 0.251 0.968 -35.3186 19.4868)" class="st6" width="28.3" height="1.5"/>
			
				<rect x="30.9" y="147.8" transform="matrix(0.968 -0.251 0.251 0.968 -35.8451 16.0487)" class="st6" width="28.3" height="1.5"/>
			
				<rect x="46.5" y="150.6" transform="matrix(0.9999 -1.180069e-02 1.180069e-02 0.9999 -1.7815 0.7262)" class="st6" width="28.3" height="1.5"/>
			
				<rect x="34.5" y="151.6" transform="matrix(0.9999 -1.180069e-02 1.180069e-02 0.9999 -1.7947 0.5847)" class="st6" width="28.3" height="1.5"/>
			
				<rect x="47.5" y="148.9" transform="matrix(0.9999 -1.180069e-02 1.180069e-02 0.9999 -1.761 0.7379)" class="st6" width="28.3" height="1.5"/>
			
				<rect x="72" y="148.6" transform="matrix(0.9999 -1.180069e-02 1.180069e-02 0.9999 -1.756 1.0267)" class="st6" width="28.3" height="1.5"/>
			
				<rect x="31.4" y="149" transform="matrix(0.9653 0.2613 -0.2613 0.9653 40.7148 -6.6908)" class="st6" width="28.3" height="1.5"/>
			
				<rect x="26.4" y="147.8" transform="matrix(0.9653 0.2613 -0.2613 0.9653 40.2269 -5.4271)" class="st6" width="28.3" height="1.5"/>
			
				<rect x="39.7" y="144.2" transform="matrix(0.995 -0.1001 0.1001 0.995 -14.239 6.1217)" class="st6" width="28.3" height="1.5"/>
			
				<rect x="61.6" y="152.4" transform="matrix(0.9981 6.157345e-02 -6.157345e-02 0.9981 9.5737 -4.3732)" class="st6" width="28.3" height="1.5"/>
			
				<rect x="67.4" y="147.5" transform="matrix(0.9889 -0.1483 0.1483 0.9889 -21.0826 13.7304)" class="st6" width="28.3" height="1.5"/>
			
				<rect x="77.4" y="150.5" transform="matrix(0.9889 -0.1483 0.1483 0.9889 -21.4174 15.2398)" class="st6" width="28.3" height="1.5"/>
			
				<rect x="67.2" y="151.1" transform="matrix(0.9526 0.3043 -0.3043 0.9526 50.0664 -17.5511)" class="st6" width="28.3" height="1.5"/>
			
				<rect x="84.7" y="153.1" transform="matrix(0.9526 0.3043 -0.3043 0.9526 51.4957 -22.7762)" class="st6" width="28.3" height="1.5"/>
			
				<rect x="52.5" y="152.6" transform="matrix(0.995 -0.1001 0.1001 0.995 -15.0152 7.4409)" class="st6" width="28.3" height="1.5"/>
			
				<rect x="47.8" y="146.3" transform="matrix(0.9981 6.157345e-02 -6.157345e-02 0.9981 9.1737 -3.5353)" class="st6" width="28.3" height="1.5"/>
			
				<rect x="34.4" y="145.5" transform="matrix(0.9981 6.157345e-02 -6.157345e-02 0.9981 9.0975 -2.7135)" class="st6" width="28.3" height="1.5"/>
		</g>
	</g>
	<g id="straws_3_">
		<g>
			
				<rect x="43.1" y="128.6" transform="matrix(0.9713 0.2379 -0.2379 0.9713 32.4288 -9.9105)" class="st6" width="28.3" height="1.5"/>
			
				<rect x="30.9" y="122.4" transform="matrix(0.9713 0.2379 -0.2379 0.9713 30.5988 -7.1708)" class="st6" width="28.3" height="1.5"/>
			
				<rect x="43.3" y="132.3" transform="matrix(0.886 0.4636 -0.4636 0.886 68.2223 -11.4852)" class="st6" width="28.3" height="1.5"/>
			
				<rect x="32.3" y="127.5" transform="matrix(0.886 0.4636 -0.4636 0.886 64.7532 -6.8997)" class="st6" width="28.3" height="1.5"/>
			
				<rect x="45" y="131.2" transform="matrix(0.886 0.4636 -0.4636 0.886 67.9309 -12.3932)" class="st6" width="28.3" height="1.5"/>
			
				<rect x="66.7" y="142.6" transform="matrix(0.886 0.4636 -0.4636 0.886 75.6688 -21.1532)" class="st6" width="28.3" height="1.5"/>
			
				<rect x="30.7" y="123.8" transform="matrix(0.7261 0.6876 -0.6876 0.7261 97.9065 3.2427)" class="st6" width="28.3" height="1.5"/>
			<rect x="26.9" y="120.3" transform="matrix(0.7261 0.6876 -0.6876 0.7261 94.5 4.9368)" class="st6" width="28.3" height="1.5"/>
			
				<rect x="40.4" y="123.4" transform="matrix(0.9235 0.3835 -0.3835 0.9235 51.8021 -11.421)" class="st6" width="28.3" height="1.5"/>
			
				<rect x="55.8" y="141" transform="matrix(0.8496 0.5274 -0.5274 0.8496 85.285 -15.5447)" class="st6" width="28.3" height="1.5"/>
			
				<rect x="63.2" y="139.5" transform="matrix(0.941 0.3383 -0.3383 0.941 52.0089 -17.8905)" class="st6" width="28.3" height="1.5"/>
			
				<rect x="70.5" y="146.9" transform="matrix(0.941 0.3383 -0.3383 0.941 54.9328 -19.9411)" class="st6" width="28.3" height="1.5"/>
			
				<rect x="61.3" y="142.6" transform="matrix(0.6945 0.7195 -0.7195 0.6945 126.1545 -10.5036)" class="st6" width="28.3" height="1.5"/>
			
				<rect x="75.8" y="152.6" transform="matrix(0.6945 0.7195 -0.7195 0.6945 137.7827 -17.8413)" class="st6" width="28.3" height="1.5"/>
			
				<rect x="47.7" y="136.9" transform="matrix(0.9235 0.3835 -0.3835 0.9235 57.511 -13.1752)" class="st6" width="28.3" height="1.5"/>
			
				<rect x="46.5" y="129.2" transform="matrix(0.8496 0.5274 -0.5274 0.8496 77.623 -12.444)" class="st6" width="28.3" height="1.5"/>
			
				<rect x="35.1" y="122.1" transform="matrix(0.8496 0.5274 -0.5274 0.8496 72.1846 -7.503)" class="st6" width="28.3" height="1.5"/>
		</g>
	</g>
	<g id="broom">
		<path class="st7" d="M15.6,139.9c0,0,0.1,0,0.4,0.1c0,0,0.1,0,0.1,0c0.4,0.1,1.1,0.5,2,1.4c1.5,1.5,3.5,0.5,4.4,1.5c1,1,3,1,4.4,2
			c1.5,1,3.5,3,4.9,3.5c1.5,0.5,2.5-0.5,3.5,1c1,1.5,1.5,0.5,3,0.5c1.5,0,4.4,1.5,4.4,1.5s3.5,2.5,5.9,3c2.5,0.5,6.4,1.5,5.9,2
			c-0.5,0.5,2,1.5,4.4,1.5c2.4,0,2,1.4,5.6,1.9c0.1,0,0.2,0,0.3,0c3.9,0.5,5.9-2,5.9-2.5c0-0.4-0.5-21.5-0.6-26c0-0.1,0-0.1,0-0.2
			c0-0.4,0-0.7,0-0.7l0-0.2l-0.1-0.6l-0.3-1.5l-18.9-8l-19.6-8.3l-1,1.7l-8.5,15.2l-1.4,2.5l-4.2,7.4L15.6,139.9z"/>
		<g>
			<path class="st8" d="M29.7,113l-1,3c0,0,0.5,0.5,0.5,0.5c1.2-1.6,5.4,3,8.9,3.5c3.5,0.5,25.1,10.8,27.6,11.8
				c2.5,1,4.4,0.2,4.4,0.2l0.2-0.8l0.2-1l0.1-0.3l-0.5-0.2l-3.5-1.7L51,120.1L30.6,110c-0.9,1.2-0.7,3.3-0.7,3.3L29.7,113z"/>
		</g>
		<path class="st9" d="M47.7,116.4c0,0,0,0,0.5,1c0.5,1,5.4,2,5.4,2l2.6-10.2L82.7,6.3l-0.6,0l-6.3,0.5L47.7,116.4z"/>
		<g>
			<path class="st10" d="M48.7,116.6l0.8,0.2c0.1,0,0.2,0.1,0.2,0.1s-0.1,0-0.2,0L48.7,116.6l-0.8-0.2c-0.1,0-0.2-0.1-0.2-0.1
				s0.1,0,0.2,0L48.7,116.6z"/>
		</g>
		<g>
			<path class="st10" d="M64.7,54.4C63.9,59,63,63.5,62,68.1c-1,4.6-2.1,9.1-3.3,13.6c-1.2,4.5-2.4,9-3.7,13.5
				c-1.3,4.5-2.7,8.9-4.2,13.4c0.8-4.6,1.7-9.2,2.7-13.7c1-4.6,2.1-9.1,3.3-13.6c1.2-4.5,2.4-9,3.7-13.5
				C61.7,63.2,63.1,58.8,64.7,54.4z"/>
		</g>
		<g>
			<path class="st10" d="M77.5,5.5c-0.4,2.5-1,5-1.5,7.5c-0.5,2.5-1.2,5-1.8,7.5c-0.6,2.5-1.3,5-2,7.4l-1.1,3.7
				c-0.4,1.2-0.8,2.4-1.2,3.7c0.2-1.3,0.5-2.5,0.7-3.8l0.8-3.8c0.5-2.5,1.2-5,1.8-7.5c0.6-2.5,1.3-5,2-7.4
				C75.9,10.4,76.7,8,77.5,5.5z"/>
		</g>
		<path class="st11" d="M29.9,113.3l0.5,0.2l35,16c1.2,0.6,3,0.6,4.3,0.6c0.2,0,0.3,0,0.5,0c0.1,0,0.2,0,0.3,0
			c0.5,0,0.8-0.1,0.8-0.1s0.6-0.7,0.8-1.6c0.3-0.8,0.3-1.8-0.8-2.4c-1-0.5-7.9-3.9-12.8-5.9c-1.4-0.6-3-1.5-3.5-2.5
			c-0.5-1,2.5-7.4,1.5-8.9c-0.1-0.1-0.1-0.2-0.2-0.2c-0.1-0.1-0.1-0.2-0.2-0.2c-0.8-0.8-1.7-0.6-3.1-0.9c-0.1,0-0.3-0.1-0.4-0.1
			c-0.5-0.1-1-0.3-1.4-0.4c-0.4-0.1-0.7-0.3-1-0.4c-0.6-0.2-1.1-0.2-1.5,0.3c-1,1-1,5.4-2,7.4c-1,2-8.4-3.5-12.8-4.9
			c-1.7-0.6-2.7-0.1-3.3,0.7C29.7,111.3,29.9,113.3,29.9,113.3z M47.2,115.7l2.5-7.9c0.1,0.1,0.1,0.1,0.2,0.2c0.3,0.2,0.6,0.4,1,0.5
			c0.9,0.3,1.8,0.3,1.8,0.3c-0.2,0.2-0.5,1.3-0.8,2.7c0,0,0,0,0,0c-0.6,2.5-1.2,5.7-1.2,5.7c-0.1,0-0.2,0-0.3,0
			c-0.4-0.1-1-0.3-1.6-0.6c-0.4-0.2-0.7-0.4-1-0.5C47.4,115.9,47.2,115.7,47.2,115.7z"/>
		<path class="st9" d="M15.9,140.5c0,0,0.1-0.2,0.2-0.5c0.7-1.4,2.9-5.9,4.4-8.8l-4.2,7.4L16,140L15.9,140.5z"/>
		<path class="st12" d="M54.8,108.1l0.5,0.1C55.1,108,54.8,108.1,54.8,108.1z"/>
		<g>
			<path class="st13" d="M53.8,107.6c1.4,0.3,1.5-0.1,2.3,0.8c0.1,0.1,0.1,0.1,0.2,0.2c0.1,0.1,0.1,0.2,0.2,0.2c1,1.5-2,7.9-1.5,8.9
				c0.5,1,2,1.9,3.5,2.5c4.9,2,11.8,5.4,12.8,5.9c1.1,0.6,1.1,1.5,0.8,2.4c-0.3,0.8-0.8,1.6-0.8,1.6s-0.3,0-0.8,0.1
				c-0.1,0-0.2,0-0.3,0c-0.2,0-0.3,0-0.5,0c0.1-0.3,0.8-2.4,0.8-2.8c0-0.5-1.5-1.5-1.5-1.5s-8.9-4.9-9.8-5.3c-0.9-0.4-7.5-3.1-8-3.1
				c0,0,1.6-3.7,2-4.9C53.7,111.3,53.8,107.6,53.8,107.6z"/>
		</g>
		<g>
			<path class="st8" d="M64.6,159.6c0.1,0,0.2,0,0.3,0c3.9,0.5,5.9-2,5.9-2.5c0-0.4-0.5-21.9-0.6-26.5c0-0.1,0-0.1,0-0.2l-3.6-0.2
				L64.6,159.6z"/>
		</g>
		<g>
			<polygon class="st14" points="55.3,108.1 55.8,108.6 82.7,6.3 82,6.3 			"/>
		</g>
	</g>
	<g id="straws_1_">
		<g>
			
				<rect x="67.5" y="167.4" transform="matrix(0.9814 -0.192 0.192 0.9814 -30.7748 18.8181)" class="st6" width="28.3" height="1.5"/>
			
				<rect x="53.8" y="166.9" transform="matrix(0.9814 -0.192 0.192 0.9814 -30.9373 16.1704)" class="st6" width="28.3" height="1.5"/>
			
				<rect x="69.2" y="170.6" transform="matrix(0.9988 4.860581e-02 -4.860581e-02 0.9988 8.4282 -3.8508)" class="st6" width="28.3" height="1.5"/>
			
				<rect x="57.2" y="170.9" transform="matrix(0.9988 4.860581e-02 -4.860581e-02 0.9988 8.4297 -3.2653)" class="st6" width="28.3" height="1.5"/>
			
				<rect x="70.4" y="169" transform="matrix(0.9988 4.860581e-02 -4.860581e-02 0.9988 8.3486 -3.9064)" class="st6" width="28.3" height="1.5"/>
			
				<rect x="94.8" y="170.2" transform="matrix(0.9988 4.860581e-02 -4.860581e-02 0.9988 8.4357 -5.0935)" class="st6" width="28.3" height="1.5"/>
			
				<rect x="54.2" y="168.2" transform="matrix(0.9477 0.3191 -0.3191 0.9477 57.4748 -12.9922)" class="st6" width="28.3" height="1.5"/>
			
				<rect x="49.3" y="166.7" transform="matrix(0.9477 0.3191 -0.3191 0.9477 56.7384 -11.5024)" class="st6" width="28.3" height="1.5"/>
			
				<rect x="62.9" y="163.8" transform="matrix(0.9992 -3.983974e-02 3.983974e-02 0.9992 -6.4961 3.1993)" class="st6" width="28.3" height="1.5"/>
			
				<rect x="84.2" y="173.4" transform="matrix(0.9926 0.1217 -0.1217 0.9926 21.9264 -10.6785)" class="st6" width="28.3" height="1.5"/>
			
				<rect x="90.3" y="168.9" transform="matrix(0.9961 -8.825833e-02 8.825833e-02 0.9961 -14.5614 9.8811)" class="st6" width="28.3" height="1.5"/>
			
				<rect x="100.1" y="172.5" transform="matrix(0.9961 -8.825833e-02 8.825833e-02 0.9961 -14.8407 10.7564)" class="st6" width="28.3" height="1.5"/>
			
				<rect x="89.9" y="172.4" transform="matrix(0.9325 0.3613 -0.3613 0.9325 69.5791 -25.8857)" class="st6" width="28.3" height="1.5"/>
			
				<rect x="107.2" y="175.4" transform="matrix(0.9325 0.3613 -0.3613 0.9325 71.8423 -31.9413)" class="st6" width="28.3" height="1.5"/>
			
				<rect x="75.1" y="173" transform="matrix(0.9992 -3.983974e-02 3.983974e-02 0.9992 -6.8509 3.6937)" class="st6" width="28.3" height="1.5"/>
			
				<rect x="70.8" y="166.5" transform="matrix(0.9926 0.1217 -0.1217 0.9926 20.9875 -9.0981)" class="st6" width="28.3" height="1.5"/>
			
				<rect x="57.5" y="164.8" transform="matrix(0.9926 0.1217 -0.1217 0.9926 20.69 -7.4913)" class="st6" width="28.3" height="1.5"/>
		</g>
	</g>
</g>
</svg>
