<?xml version="1.0" encoding="utf-8"?>
<!-- Generator: Adobe Illustrator 22.1.0, SVG Export Plug-In . SVG Version: 6.00 Build 0)  -->
<svg version="1.1" id="Layer_1" xmlns="http://www.w3.org/2000/svg" xmlns:xlink="http://www.w3.org/1999/xlink" x="0px" y="0px"
	 viewBox="0 0 221.9 94.2" style="enable-background:new 0 0 221.9 94.2;" xml:space="preserve">
<style type="text/css">
	.st0{fill:#227D3E;}
	.st1{fill:#B3B3B3;}
	.st2{fill:#37B44A;}
	.st3{display:none;fill:#227D3E;}
	.st4{fill:none;stroke:#010101;stroke-miterlimit:10;}
	.st5{fill:none;stroke:#F9D43B;stroke-width:5;stroke-miterlimit:10;}
	.st6{fill:#EAEAEA;stroke:#939393;stroke-width:0.5;stroke-miterlimit:10;}
	.st7{fill:none;stroke:#939393;stroke-width:0.5;stroke-miterlimit:10;}
</style>
<g id="conveyor-img">
	<g id="conveyor">
		<polygon class="st0" points="220.9,21 27.4,21 27.4,0 220.8,0 220.8,6.5 		"/>
		<polygon class="st1" points="221.9,21.5 221.9,27.5 26.9,27.5 29.3,24 30.9,21.5 31.3,21 40.9,6.5 220.8,6.5 220.9,21 221.4,21 
			221.4,21.5 		"/>
		<polygon class="st2" points="221.9,27.5 221.9,21.5 221.4,21.5 220.9,21.5 30.9,21.5 15.4,21.5 15.4,21.5 14.9,21.5 14.9,82.5 
			47.4,82.5 53.5,82.5 87.4,82.5 93.4,82.5 125.4,82.5 131.4,82.5 167.4,82.5 172.4,82.5 221.4,82.5 		"/>
		<polyline class="st3" points="216.4,33 216.4,83 222.4,83 222.4,17 15.4,17 15.4,83 		"/>
		<rect x="16.9" y="32.5" class="st0" width="204" height="4"/>
		<polyline class="st4" points="15.4,21.5 15.4,21.5 30.9,21.5 220.9,21.5 221.4,21.5 221.9,21.5 		"/>
		<rect x="167.4" y="33" class="st0" width="5" height="50"/>
		<rect x="125.4" y="33" class="st0" width="6" height="50"/>
		<rect x="87.4" y="33" class="st0" width="6" height="50"/>
		<polygon class="st0" points="53.9,33 53.4,83 47.4,83 47.4,33 		"/>
		<g id="barrier">
			<path class="st5" d="M15.4,83V32c0,0-1-6,10-6c24,0,142,0,142,0s5,1,5,6s0,51,0,51"/>
			<line class="st5" x1="15.4" y1="43.5" x2="172.4" y2="43.5"/>
			<line class="st5" x1="93.4" y1="26" x2="93.4" y2="83"/>
			<line class="st5" x1="53.9" y1="26" x2="53.9" y2="83"/>
			<line class="st5" x1="131.4" y1="26" x2="131.4" y2="83"/>
		</g>
		<rect x="15.4" y="21" class="st0" width="206" height="3"/>
	</g>
	<g id="straws">
		<g>
			
				<rect x="28.4" y="78.2" transform="matrix(0.9507 -0.3101 0.3101 0.9507 -22.3963 17.0983)" class="st6" width="28.3" height="1.5"/>
			
				<rect x="14.7" y="79.4" transform="matrix(0.9507 -0.3101 0.3101 0.9507 -23.4408 12.9099)" class="st6" width="28.3" height="1.5"/>
			
				<rect x="30.5" y="81.2" transform="matrix(0.9973 -7.334746e-02 7.334746e-02 0.9973 -5.8921 3.497)" class="st6" width="28.3" height="1.5"/>
			
				<rect x="18.6" y="83" transform="matrix(0.9973 -7.334746e-02 7.334746e-02 0.9973 -6.0552 2.6282)" class="st6" width="28.3" height="1.5"/>
			
				<rect x="31.4" y="79.4" transform="matrix(0.9973 -7.334746e-02 7.334746e-02 0.9973 -5.7587 3.5577)" class="st6" width="28.3" height="1.5"/>
			
				<rect x="55.8" y="77.7" transform="matrix(0.9973 -7.334746e-02 7.334746e-02 0.9973 -5.5619 5.3437)" class="st6" width="28.3" height="1.5"/>
			
				<rect x="15.3" y="80.6" transform="matrix(0.9795 0.2013 -0.2013 0.9795 16.9863 -4.2691)" class="st6" width="28.3" height="1.5"/>
			
				<rect x="10.3" y="79.7" transform="matrix(0.9795 0.2013 -0.2013 0.9795 16.7028 -3.2684)" class="st6" width="28.3" height="1.5"/>
			
				<rect x="23.4" y="75.3" transform="matrix(0.9869 -0.1612 0.1612 0.9869 -11.762 7.0416)" class="st6" width="28.3" height="1.5"/>
			<rect x="45.7" y="82.1" class="st6" width="28.3" height="1.5"/>
			
				<rect x="51.2" y="76.9" transform="matrix(0.9779 -0.2089 0.2089 0.9779 -14.7776 15.3639)" class="st6" width="28.3" height="1.5"/>
			
				<rect x="61.3" y="79.3" transform="matrix(0.9779 -0.2089 0.2089 0.9779 -15.0518 17.5309)" class="st6" width="28.3" height="1.5"/>
			
				<rect x="51.2" y="80.5" transform="matrix(0.9695 0.2451 -0.2451 0.9695 21.8991 -13.5406)" class="st6" width="28.3" height="1.5"/>
			
				<rect x="68.8" y="81.4" transform="matrix(0.9695 0.2451 -0.2451 0.9695 22.6537 -17.8185)" class="st6" width="28.3" height="1.5"/>
			
				<rect x="36.6" y="82.9" transform="matrix(0.9869 -0.1612 0.1612 0.9869 -12.8125 9.2765)" class="st6" width="28.3" height="1.5"/>
			<rect x="31.6" y="76.9" class="st6" width="28.3" height="1.5"/>
			<rect x="18.2" y="76.9" class="st6" width="28.3" height="1.5"/>
		</g>
		<g>
			
				<rect x="193.4" y="79.2" transform="matrix(0.9507 -0.3101 0.3101 0.9507 -14.5731 68.3126)" class="st6" width="28.3" height="1.5"/>
			
				<rect x="179.7" y="80.4" transform="matrix(0.9507 -0.3101 0.3101 0.9507 -15.6175 64.1242)" class="st6" width="28.3" height="1.5"/>
			
				<rect x="143.7" y="80.4" transform="matrix(0.9507 -0.3101 0.3101 0.9507 -17.3921 52.9609)" class="st6" width="28.3" height="1.5"/>
			<polygon class="st6" points="221.2,81.4 221.3,81.4 221.3,82.9 217.8,83.1 211.9,83.6 210.7,83.6 206,84 206,84 203.3,84.2 
				200.6,84.4 200.6,84.4 200.1,84.4 200,84.4 195.6,84.8 195.6,84.7 195.6,84.2 195.5,83.5 195.5,83.3 195.5,83.3 200.2,82.9 
				200.2,82.9 200.7,82.9 200.7,82.9 201.2,82.8 201.3,82.8 216.6,81.7 221.2,81.4 			"/>
			
				<rect x="183.6" y="84" transform="matrix(0.9973 -7.334746e-02 7.334746e-02 0.9973 -5.6841 14.7333)" class="st6" width="28.3" height="1.5"/>
			
				<rect x="143.6" y="81" transform="matrix(0.9973 -7.334746e-02 7.334746e-02 0.9973 -5.5718 11.7913)" class="st6" width="28.3" height="1.5"/>
			<polygon class="st6" points="221.3,79.6 221.3,81.1 220.9,81.2 216.5,81.5 202.2,82.5 202.2,82.5 199.9,82.7 199.8,82.7 
				199.3,82.8 199.3,82.8 196.5,83 196.5,82.8 196.5,82.2 196.4,82 196.4,81.5 201.8,81.1 201.9,81.1 208.1,80.6 208.1,80.6 
				218.1,79.9 220.8,79.7 			"/>
			<polygon class="st6" points="220.8,79.7 221.3,79.6 221.3,81.1 220.9,81.2 220.9,81.2 220.9,80.6 220.8,79.9 			"/>
			
				<rect x="180.3" y="81.6" transform="matrix(0.9795 0.2013 -0.2013 0.9795 20.5659 -37.4665)" class="st6" width="28.3" height="1.5"/>
			
				<rect x="175.3" y="80.7" transform="matrix(0.9795 0.2013 -0.2013 0.9795 20.2824 -36.4657)" class="st6" width="28.3" height="1.5"/>
			
				<rect x="188.4" y="76.3" transform="matrix(0.9869 -0.1612 0.1612 0.9869 -9.7657 33.6498)" class="st6" width="28.3" height="1.5"/>
			<rect x="210.7" y="83.1" class="st6" width="10.6" height="1.5"/>
			<polygon class="st6" points="220.8,79.9 221.3,79.8 221.3,81.3 221.2,81.4 221.2,81.4 216.7,82.3 216.6,81.7 216.5,81.5 
				216.4,80.9 219.4,80.2 			"/>
			<polygon class="st6" points="221.3,79.2 221.3,80.7 220.9,80.6 219.4,80.2 218.1,79.9 216.5,79.5 216.5,79.4 216.8,78 			"/>
			<polygon class="st6" points="220.3,83.1 221.3,83 221.3,84.5 220.4,84.6 201.9,87.6 201.7,86.1 205.9,85.5 208.4,85.1 
				211.1,84.6 			"/>
			<rect x="196.6" y="77.9" class="st6" width="24.8" height="1.5"/>
			<rect x="183.2" y="77.9" class="st6" width="28.3" height="1.5"/>
		</g>
		<line class="st7" x1="221.3" y1="82.9" x2="221.3" y2="82.9"/>
	</g>
</g>
</svg>
