<?xml version="1.0" encoding="utf-8"?>
<!-- Generator: Adobe Illustrator 22.1.0, SVG Export Plug-In . SVG Version: 6.00 Build 0)  -->
<svg version="1.1" id="Layer_1" xmlns="http://www.w3.org/2000/svg" xmlns:xlink="http://www.w3.org/1999/xlink" x="0px" y="0px"
	 viewBox="0 0 53.7 77.9" style="enable-background:new 0 0 53.7 77.9;" xml:space="preserve">
<style type="text/css">
	.st0{fill:#F3F3F3;stroke:#D8D9D8;stroke-width:0.5;stroke-miterlimit:10;}
	.st1{fill:none;stroke:#F8F7F7;stroke-width:5;stroke-miterlimit:10;}
	.st2{fill:none;stroke:url(#SVGID_1_);stroke-width:5;stroke-miterlimit:10;}
	.st3{fill:#245529;}
	.st4{fill:none;stroke:#C7C6C5;stroke-width:0.5;stroke-miterlimit:10;}
	.st5{fill:#C7C6C5;}
</style>
<g id="cup-img">
	<path class="st0" d="M13.2,17.9c0,0,0,1.2,0.2,1.3s0.3,0.3,0.3,0.3l3,36.6c0,0,0-0.2,0.2,0.7c0.2,0.8,0.2,3,0.2,3s3.8,1.5,8.9,1.2
		s7.1-0.7,7.6-0.8c0.5-0.2,0.5-0.3,0.5-0.3l0.2-2.8c0,0,0.3-0.7,0.3-1s3.3-36.1,3.3-36.1s0.5,0,0.5-0.8s0.2-0.8,0.2-0.8l1-0.2V17
		c0,0-0.5-0.7-1.3-0.7l-0.8-3.5c0,0-3.6-1.8-11.8-1.8s-11.3,1.5-11.3,1.5L13.5,16c0,0-1.5,0.2-1.5,0.5s0,1.3,0,1.3s0.2,0.2,0.7,0.2
		C13.2,17.9,13.2,17.9,13.2,17.9z"/>
	<path class="st1" d="M12,17.1c0,0,9.4-0.5,13.6-0.3c4.1,0.2,10.7,0.2,13.9,0.8"/>
	<linearGradient id="SVGID_1_" gradientUnits="userSpaceOnUse" x1="25.7351" y1="20.6403" x2="25.7351" y2="14.9151">
		<stop  offset="0" style="stop-color:#FFFFFF"/>
		<stop  offset="0.2045" style="stop-color:#FBFBFB"/>
		<stop  offset="0.3955" style="stop-color:#F0F0F0"/>
		<stop  offset="0.5812" style="stop-color:#DDDDDD"/>
		<stop  offset="0.7635" style="stop-color:#C3C3C3"/>
		<stop  offset="0.9417" style="stop-color:#A1A1A1"/>
		<stop  offset="1" style="stop-color:#949494"/>
	</linearGradient>
	<path class="st2" d="M12,17.7c2.5-0.1,9.7-0.4,13.2-0.3c4.1,0.2,10.4,0.2,13.9,0.7h0"/>
	<circle class="st3" cx="26" cy="35.3" r="8.4"/>
	<path class="st4" d="M13.7,19.6c2.5-0.2,10.6-0.7,13.2-0.5c2.5,0.1,8.6,0.6,11.1,0.7h0"/>
	<path class="st4" d="M12.2,17.4c2.5-0.2,12-0.6,14.6-0.4c2.5,0.1,10.2,0.4,12.7,0.6L38,17.8"/>
	<path class="st4" d="M16.9,57.2c2,0.3,5.9,0.8,9.1,0.8c2.5,0,5.8-0.4,8.3-0.8"/>
	<circle class="st5" cx="22.5" cy="32.4" r="0.8"/>
	<circle class="st5" cx="28.7" cy="32.4" r="0.8"/>
	<g>
		<path class="st5" d="M22.1,36.7c1.1,0.5,1.8,1,2.4,1.2c0.6,0.2,0.9,0.1,1.2,0.1c0.4,0,0.6,0.1,1.2-0.1c0.3-0.1,0.6-0.2,1-0.4
			c0.4-0.2,0.8-0.4,1.2-0.8c0.3,0.2,0.4,0.5,0.4,0.8c0.1,0.3,0.1,0.6,0.1,0.9c0,0.6-0.2,1.2-0.5,1.7c-0.3,0.5-0.8,1-1.4,1.4
			c-0.6,0.3-1.3,0.5-2,0.5c-0.7,0-1.5-0.2-2.1-0.6c-0.6-0.4-1.1-0.9-1.4-1.4C21.7,38.9,21.6,37.8,22.1,36.7z"/>
	</g>
</g>
</svg>
