<?xml version="1.0" encoding="utf-8"?>
<!-- Generator: Adobe Illustrator 22.0.1, SVG Export Plug-In . SVG Version: 6.00 Build 0)  -->
<svg version="1.1" id="Layer_1" xmlns="http://www.w3.org/2000/svg" xmlns:xlink="http://www.w3.org/1999/xlink" x="0px" y="0px"
	 viewBox="0 0 207.5 377.5" style="enable-background:new 0 0 207.5 377.5;" xml:space="preserve">
<style type="text/css">
	.st0{clip-path:url(#SVGID_2_);}
	.st1{fill:#F2F2F2;stroke:#A5A5A5;stroke-miterlimit:10;}
	.st2{fill:none;stroke:#DA0C13;stroke-width:2;stroke-miterlimit:10;}
</style>
<g>
	<defs>
		<rect id="SVGID_1_" x="-0.5" y="-0.5" width="210.5" height="380"/>
	</defs>
	<clipPath id="SVGID_2_">
		<use xlink:href="#SVGID_1_"  style="overflow:visible;"/>
	</clipPath>
	<g id="straw_6_" class="st0">
		<path class="st1" d="M201.5,71l-405,0.7V60.1l403.2-2C199.7,58.1,204.1,65.5,201.5,71z"/>
		<line class="st2" x1="201.8" y1="66.7" x2="-203.6" y2="66.9"/>
		<line class="st2" x1="200.4" y1="61" x2="-203.6" y2="61.9"/>
	</g>
	<g id="straw_1_" class="st0">
		<path class="st1" d="M202.5,151l-405,0.7v-11.5l403.2-2C200.7,138.1,205.1,145.5,202.5,151z"/>
		<line class="st2" x1="202.8" y1="146.6" x2="-202.6" y2="146.9"/>
		<line class="st2" x1="201.4" y1="141" x2="-202.6" y2="141.9"/>
	</g>
	<g id="straw_2_" class="st0">
		<path class="st1" d="M202.5,231l-405,0.7v-11.5l403.2-2C200.7,218.1,205.1,225.5,202.5,231z"/>
		<line class="st2" x1="202.8" y1="226.6" x2="-202.6" y2="226.9"/>
		<line class="st2" x1="201.4" y1="221" x2="-202.6" y2="221.9"/>
	</g>
	<g id="straw_3_" class="st0">
		<path class="st1" d="M202.5,311l-405,0.7v-11.5l403.2-2C200.7,298.1,205.1,305.5,202.5,311z"/>
		<line class="st2" x1="202.8" y1="306.6" x2="-202.6" y2="306.9"/>
		<line class="st2" x1="201.4" y1="301" x2="-202.6" y2="301.9"/>
	</g>
	<g id="straw_8_" class="st0">
		<path class="st1" d="M903,71l-405,0.7V60.1l403.2-2C901.2,58.1,905.6,65.5,903,71z"/>
		<line class="st2" x1="903.3" y1="66.7" x2="497.9" y2="66.9"/>
		<line class="st2" x1="901.9" y1="61" x2="497.9" y2="61.9"/>
	</g>
	<g id="straw_7_" class="st0">
		<path class="st1" d="M904,151l-405,0.7v-11.5l403.2-2C902.2,138.1,906.6,145.5,904,151z"/>
		<line class="st2" x1="904.3" y1="146.6" x2="498.9" y2="146.9"/>
		<line class="st2" x1="902.9" y1="141" x2="498.9" y2="141.9"/>
	</g>
	<g id="straw_5_" class="st0">
		<path class="st1" d="M904,231l-405,0.7v-11.5l403.2-2C902.2,218.1,906.6,225.5,904,231z"/>
		<line class="st2" x1="904.3" y1="226.6" x2="498.9" y2="226.9"/>
		<line class="st2" x1="902.9" y1="221" x2="498.9" y2="221.9"/>
	</g>
	<g id="straw_4_" class="st0">
		<path class="st1" d="M904,311l-405,0.7v-11.5l403.2-2C902.2,298.1,906.6,305.5,904,311z"/>
		<line class="st2" x1="904.3" y1="306.6" x2="498.9" y2="306.9"/>
		<line class="st2" x1="902.9" y1="301" x2="498.9" y2="301.9"/>
	</g>
</g>
</svg>
