<?xml version="1.0" encoding="utf-8"?>
<!-- Generator: Adobe Illustrator 22.0.1, SVG Export Plug-In . SVG Version: 6.00 Build 0)  -->
<svg version="1.1" id="Layer_1" xmlns="http://www.w3.org/2000/svg" xmlns:xlink="http://www.w3.org/1999/xlink" x="0px" y="0px"
	 viewBox="0 0 199.1 377.5" style="enable-background:new 0 0 199.1 377.5;" xml:space="preserve">
<style type="text/css">
	.st0{clip-path:url(#SVGID_2_);}
	.st1{fill:#F2F2F2;stroke:#A5A5A5;stroke-miterlimit:10;}
	.st2{fill:none;stroke:#DA0C13;stroke-width:2;stroke-miterlimit:10;}
</style>
<g>
	<defs>
		<rect id="SVGID_1_" x="-0.7" y="-0.5" width="200" height="380"/>
	</defs>
	<clipPath id="SVGID_2_">
		<use xlink:href="#SVGID_1_"  style="overflow:visible;"/>
	</clipPath>
	<g id="straw_6_" class="st0">
		<path class="st1" d="M-294.2,71l-405,0.7V60.1l403.2-2C-296,58.1-291.6,65.5-294.2,71z"/>
		<line class="st2" x1="-293.9" y1="66.7" x2="-699.3" y2="66.9"/>
		<line class="st2" x1="-295.3" y1="61" x2="-699.3" y2="61.9"/>
	</g>
	<g id="straw_1_" class="st0">
		<path class="st1" d="M-293.2,151l-405,0.7v-11.5l403.2-2C-295,138.1-290.6,145.5-293.2,151z"/>
		<line class="st2" x1="-292.9" y1="146.6" x2="-698.3" y2="146.9"/>
		<line class="st2" x1="-294.3" y1="141" x2="-698.3" y2="141.9"/>
	</g>
	<g id="straw_2_" class="st0">
		<path class="st1" d="M-293.2,231l-405,0.7v-11.5l403.2-2C-295,218.1-290.6,225.5-293.2,231z"/>
		<line class="st2" x1="-292.9" y1="226.6" x2="-698.3" y2="226.9"/>
		<line class="st2" x1="-294.3" y1="221" x2="-698.3" y2="221.9"/>
	</g>
	<g id="straw_3_" class="st0">
		<path class="st1" d="M-293.2,311l-405,0.7v-11.5l403.2-2C-295,298.1-290.6,305.5-293.2,311z"/>
		<line class="st2" x1="-292.9" y1="306.6" x2="-698.3" y2="306.9"/>
		<line class="st2" x1="-294.3" y1="301" x2="-698.3" y2="301.9"/>
	</g>
	<g id="straw_8_" class="st0">
		<path class="st1" d="M407.3,71l-405,0.7V60.1l403.2-2C405.5,58.1,409.9,65.5,407.3,71z"/>
		<line class="st2" x1="407.6" y1="66.7" x2="2.2" y2="66.9"/>
		<line class="st2" x1="406.2" y1="61" x2="2.2" y2="61.9"/>
	</g>
	<g id="straw_7_" class="st0">
		<path class="st1" d="M408.3,151l-405,0.7v-11.5l403.2-2C406.5,138.1,410.9,145.5,408.3,151z"/>
		<line class="st2" x1="408.6" y1="146.6" x2="3.2" y2="146.9"/>
		<line class="st2" x1="407.2" y1="141" x2="3.2" y2="141.9"/>
	</g>
	<g id="straw_5_" class="st0">
		<path class="st1" d="M408.3,231l-405,0.7v-11.5l403.2-2C406.5,218.1,410.9,225.5,408.3,231z"/>
		<line class="st2" x1="408.6" y1="226.6" x2="3.2" y2="226.9"/>
		<line class="st2" x1="407.2" y1="221" x2="3.2" y2="221.9"/>
	</g>
	<g id="straw_4_" class="st0">
		<path class="st1" d="M408.3,311l-405,0.7v-11.5l403.2-2C406.5,298.1,410.9,305.5,408.3,311z"/>
		<line class="st2" x1="408.6" y1="306.6" x2="3.2" y2="306.9"/>
		<line class="st2" x1="407.2" y1="301" x2="3.2" y2="301.9"/>
	</g>
</g>
</svg>
