<?xml version="1.0" encoding="utf-8"?>
<!-- Generator: Adobe Illustrator 22.1.0, SVG Export Plug-In . SVG Version: 6.00 Build 0)  -->
<svg version="1.1" id="Layer_1" xmlns="http://www.w3.org/2000/svg" xmlns:xlink="http://www.w3.org/1999/xlink" x="0px" y="0px"
	 viewBox="0 0 76.1 87.3" style="enable-background:new 0 0 76.1 87.3;" xml:space="preserve">
<style type="text/css">
	.st0{fill:#DAD6D4;}
	.st1{fill:#E8E9E6;}
	.st2{opacity:0.2;fill:#010101;}
	.st3{fill:#DDDDDD;}
	.st4{fill:#E1E2E1;}
	.st5{fill:#D1D2CD;}
	.st6{fill:none;stroke:#D1D2CD;stroke-miterlimit:10;}
	.st7{fill:#333333;}
</style>
<g id="takeout-img">
	<polygon class="st0" points="28.2,32.8 34.3,24.2 44.4,23.4 57.7,27.7 67.9,32.6 42.6,40.6 32,44.5 	"/>
	<polygon class="st1" points="34.6,81.5 16,68 14.1,47.4 7.5,28 34.6,41.8 	"/>
	<path class="st2" d="M17.1,61.7c0.2,4.8,0,7,0,7L16,67.6l0,0c0,0,0,0,0,0l-0.2-0.2c0,0,0,0,0,0c0-0.2,0-0.5-0.1-0.9
		c-0.5-2.2-1.5-6.8-2.6-12.2l1.7-1.9l2.2-2.5l1.5-1.7C18.5,48.3,16.9,56.9,17.1,61.7z"/>
	<path class="st3" d="M15.8,67.6c0-0.2,0-0.5-0.1-0.8c0.1,0.4,0.2,0.7,0.2,0.9c0,0,0,0,0,0C16,67.9,16,68,16,68
		C15.9,68.1,15.9,68,15.8,67.6C15.8,67.6,15.8,67.6,15.8,67.6z"/>
	<path class="st3" d="M19.9,47.4c-0.8,0.4-1.5,1.4-2,2.7c-0.3,0.8-0.6,1.7-0.8,2.6c-0.9,3.7-1.3,8.5-1.3,11.8c0,0.9,0,1.7,0,2.3
		c-0.5-1.8-1.5-5.7-2.6-10.4c-2.8-11.3-6.7-27-6.7-28.1c0-1.7,0-1.7,0-1.7s0.4,0.5,1.1,1.3c1.6,2,4.6,5.5,6.2,6.9
		c0.6,0.5,1.4,1.7,2.1,3.2C17.7,41.8,19.9,47.4,19.9,47.4z"/>
	<path class="st2" d="M34.5,82.6c0,0-14.2-25.2-22-42.3c-0.4-0.8,2.3-0.3,2.3-0.3l18.6,29.8L34.5,82.6z"/>
	<polygon class="st4" points="67.5,33.1 34.4,41.8 18,36.8 12.4,39.9 34.6,81.5 57.4,73.3 	"/>
	<polygon class="st0" points="34.6,41.8 67.5,33.1 57.4,73.3 34.6,81.5 	"/>
	<polygon class="st2" points="44.4,30.9 58.4,32.4 67.4,33 67.4,31.9 57.7,27.8 50,26.7 44.4,28.5 	"/>
	<path class="st5" d="M28.2,19.3l1-1.7l7.5,1.7l30.7,12.6c0,0-2.4,0.5-3.5-0.1c-1.1-0.6-3-2.1-4.8-1.5s-8.6-1.6-8.9-1.2
		c-0.4,0.4-6.5,0-6.5,0L28.2,19.3z"/>
	<path class="st1" d="M6,27c0,0,8.2-5.2,12.6-6.5s9.7-1.2,9.7-1.2s13.1,5.7,14.6,6c1.5,0.2,2.7,0.7,2.7,0.7l-0.7,7.7l-11.4,7.7L6,27
		z"/>
	<polyline class="st6" points="67.5,33.1 34.5,41.5 6,26.5 	"/>
	<g>
		<path class="st7" d="M14.9,28c-0.5-2.1-0.9-4.1-1.1-6.2c-0.3-2.1-0.4-4.2-0.4-6.4c0-0.6,0.1-1.1,0.2-1.7c0.1-0.6,0.2-1.2,0.6-1.9
			c0.1-0.2,0.3-0.4,0.5-0.6c0.1-0.1,0.2-0.2,0.4-0.3c0.1-0.1,0.2-0.1,0.3-0.1c0.3-0.1,0.7-0.3,1-0.4c0.5-0.2,1.1-0.3,1.6-0.5
			l1.6-0.4L21.1,9c1-0.2,2.1-0.4,3.1-0.6c4.1-0.8,8.3-1.4,12.4-2c4.1-0.6,8.3-1,12.5-1.4l-0.8,0.3c0.3-0.2,0.4-0.2,0.7-0.3
			c0.2-0.1,0.4-0.1,0.7-0.2c0.5-0.1,1,0,1.5,0.2c1,0.4,1.5,1.1,1.8,1.7c0.6,1.2,0.6,2.2,0.7,3.1c0.1,1.9,0,3.6,0,5.4
			c0,1.8-0.2,3.5-0.3,5.3c-0.2,1.8-0.3,3.5-0.6,5.3c-0.3-1.8-0.5-3.5-0.7-5.3l-0.6-5.2c-0.2-1.7-0.4-3.5-0.7-5.1
			c-0.1-0.8-0.3-1.6-0.6-1.9C49.9,7.9,49.8,8,50,8.1c0.1,0.1,0.2,0,0.2,0.1c0,0,0,0,0,0c0,0,0,0,0.1,0l-0.8,0.3
			C41.3,9.8,33,10.9,24.8,12c-2,0.3-4.1,0.6-6.1,0.9c-0.5,0.1-1,0.2-1.4,0.3c-0.2,0-0.3,0.1-0.5,0.1c0,0-0.1,0-0.1,0
			c0,0,0,0,0.1-0.1c0,0,0,0,0,0c-0.1,0.2-0.3,0.6-0.4,1c-0.1,0.4-0.2,0.9-0.3,1.4C15.3,19.5,15.2,23.8,14.9,28z"/>
	</g>
</g>
</svg>
